M48
; DRILL file {KiCad 7.0.5} date Fri Dec  8 14:15:36 2023
; FORMAT={-:-/ absolute / metric / decimal}
; #@! TF.CreationDate,2023-12-08T14:15:36+03:00
; #@! TF.GenerationSoftware,Kicad,Pcbnew,7.0.5
; #@! TF.FileFunction,Plated,1,2,PTH
FMAT,2
METRIC
; #@! TA.AperFunction,Plated,PTH,ViaDrill
T1C0.400
; #@! TA.AperFunction,Plated,PTH,ComponentDrill
T2C0.800
; #@! TA.AperFunction,Plated,PTH,ComponentDrill
T3C1.000
; #@! TA.AperFunction,Plated,PTH,ComponentDrill
T4C1.100
; #@! TA.AperFunction,Plated,PTH,ComponentDrill
T5C1.200
; #@! TA.AperFunction,Plated,PTH,ComponentDrill
T6C1.300
; #@! TA.AperFunction,Plated,PTH,ComponentDrill
T7C1.600
; #@! TA.AperFunction,Plated,PTH,ComponentDrill
T8C1.800
%
G90
G05
T1
X55.245Y-106.055
X55.245Y-108.595
X61.595Y-73.035
X63.5Y-76.845
X66.675Y-105.42
X68.58Y-84.465
X69.215Y-97.8
X69.215Y-101.61
X69.215Y-105.42
X70.485Y-109.23
X72.39Y-48.27
X72.39Y-50.175
X72.39Y-52.08
X72.39Y-54.62
X73.66Y-47.635
X73.66Y-49.54
X73.66Y-51.445
X73.66Y-53.985
X73.66Y-56.525
X76.2Y-56.525
X78.74Y-74.94
X79.375Y-56.525
X83.185Y-71.765
X86.995Y-35.57
X86.995Y-36.84
X87.63Y-104.15
X88.265Y-35.57
X88.265Y-36.84
X90.17Y-60.335
X91.44Y-59.7
X91.44Y-61.605
X91.44Y-78.115
X91.44Y-80.02
X92.71Y-76.845
X92.71Y-78.75
X92.71Y-80.655
X92.71Y-89.545
X92.71Y-91.45
X92.71Y-93.355
X99.06Y-62.875
X101.6Y-113.04
X104.14Y-116.85
X104.775Y-84.465
X104.775Y-99.705
X107.315Y-106.69
X107.315Y-116.85
X111.125Y-88.91
X111.125Y-104.785
X111.76Y-69.86
X113.03Y-104.785
X114.935Y-69.86
X114.935Y-77.48
X114.935Y-104.785
X116.84Y-104.785
X118.745Y-104.785
X128.27Y-100.975
X128.905Y-79.385
X130.429Y-83.957
X132.08Y-69.86
X132.08Y-92.72
X132.08Y-116.85
X135.89Y-116.85
X138.43Y-88.91
X142.875Y-88.91
X148.59Y-110.5
X153.67Y-91.44
X153.67Y-97.8
X158.115Y-88.91
X158.115Y-94.625
X160.02Y-87.005
X160.655Y-99.07
X163.195Y-78.105
X163.83Y-100.975
X166.37Y-108.595
X168.275Y-102.88
X169.545Y-87.005
X170.18Y-77.48
X170.18Y-109.23
X172.72Y-65.415
X175.895Y-87.64
X177.165Y-102.88
X183.515Y-81.29
X185.42Y-106.69
X185.42Y-108.595
X186.055Y-81.29
X187.325Y-73.67
X187.96Y-53.35
X187.96Y-55.255
T2
X75.391Y-42.555
X83.519Y-42.555
X87.63Y-43.016
X87.63Y-51.144
T3
X60.96Y-96.52
X60.96Y-99.06
X60.96Y-101.6
X60.96Y-104.14
T4
X106.68Y-55.245
X109.22Y-55.245
X111.76Y-55.245
X138.43Y-55.88
X140.97Y-55.88
X143.51Y-55.88
X170.18Y-55.88
X172.72Y-55.88
X175.26Y-55.88
T5
X77.55Y-105.58
X77.55Y-115.58
X82.55Y-115.58
X87.55Y-115.58
X92.55Y-115.58
X97.55Y-105.58
X97.55Y-115.58
X143.67Y-105.58
X143.67Y-115.58
X148.67Y-105.58
X148.67Y-115.58
X153.67Y-115.58
X158.67Y-105.58
X158.67Y-115.58
X163.67Y-105.58
X163.67Y-115.58
T6
X57.5Y-46.365
X57.5Y-58.565
X63.5Y-60.565
X69.5Y-46.365
X69.5Y-58.565
T7
X124.46Y-55.88
X124.46Y-71.12
X156.21Y-55.88
X156.21Y-71.12
T8
X55.245Y-32.395
X59.205Y-32.395
X63.165Y-32.395
X67.125Y-32.395
X71.085Y-32.395
X75.045Y-32.395
X79.005Y-32.395
X82.965Y-32.395
X86.925Y-32.395
X90.885Y-32.395
T0
M30
