%TF.GenerationSoftware,KiCad,Pcbnew,7.0.5*%
%TF.CreationDate,2023-12-08T14:16:09+03:00*%
%TF.ProjectId,wireFeeding,77697265-4665-4656-9469-6e672e6b6963,rev?*%
%TF.SameCoordinates,Original*%
%TF.FileFunction,Paste,Top*%
%TF.FilePolarity,Positive*%
%FSLAX46Y46*%
G04 Gerber Fmt 4.6, Leading zero omitted, Abs format (unit mm)*
G04 Created by KiCad (PCBNEW 7.0.5) date 2023-12-08 14:16:09*
%MOMM*%
%LPD*%
G01*
G04 APERTURE LIST*
G04 Aperture macros list*
%AMRoundRect*
0 Rectangle with rounded corners*
0 $1 Rounding radius*
0 $2 $3 $4 $5 $6 $7 $8 $9 X,Y pos of 4 corners*
0 Add a 4 corners polygon primitive as box body*
4,1,4,$2,$3,$4,$5,$6,$7,$8,$9,$2,$3,0*
0 Add four circle primitives for the rounded corners*
1,1,$1+$1,$2,$3*
1,1,$1+$1,$4,$5*
1,1,$1+$1,$6,$7*
1,1,$1+$1,$8,$9*
0 Add four rect primitives between the rounded corners*
20,1,$1+$1,$2,$3,$4,$5,0*
20,1,$1+$1,$4,$5,$6,$7,0*
20,1,$1+$1,$6,$7,$8,$9,0*
20,1,$1+$1,$8,$9,$2,$3,0*%
G04 Aperture macros list end*
%ADD10RoundRect,0.150000X-0.825000X-0.150000X0.825000X-0.150000X0.825000X0.150000X-0.825000X0.150000X0*%
%ADD11RoundRect,0.200000X0.200000X0.275000X-0.200000X0.275000X-0.200000X-0.275000X0.200000X-0.275000X0*%
%ADD12RoundRect,0.250000X1.950000X1.000000X-1.950000X1.000000X-1.950000X-1.000000X1.950000X-1.000000X0*%
%ADD13RoundRect,0.250000X-0.362500X-1.425000X0.362500X-1.425000X0.362500X1.425000X-0.362500X1.425000X0*%
%ADD14RoundRect,0.250000X-1.425000X0.425000X-1.425000X-0.425000X1.425000X-0.425000X1.425000X0.425000X0*%
%ADD15RoundRect,0.250000X-0.450000X0.262500X-0.450000X-0.262500X0.450000X-0.262500X0.450000X0.262500X0*%
%ADD16RoundRect,0.200000X-0.200000X-0.275000X0.200000X-0.275000X0.200000X0.275000X-0.200000X0.275000X0*%
%ADD17RoundRect,0.200000X-0.275000X0.200000X-0.275000X-0.200000X0.275000X-0.200000X0.275000X0.200000X0*%
%ADD18RoundRect,0.250000X-1.425000X0.362500X-1.425000X-0.362500X1.425000X-0.362500X1.425000X0.362500X0*%
%ADD19RoundRect,0.150000X0.150000X-0.587500X0.150000X0.587500X-0.150000X0.587500X-0.150000X-0.587500X0*%
%ADD20RoundRect,0.150000X-0.587500X-0.150000X0.587500X-0.150000X0.587500X0.150000X-0.587500X0.150000X0*%
%ADD21RoundRect,0.250000X1.500000X0.550000X-1.500000X0.550000X-1.500000X-0.550000X1.500000X-0.550000X0*%
%ADD22RoundRect,0.225000X-0.250000X0.225000X-0.250000X-0.225000X0.250000X-0.225000X0.250000X0.225000X0*%
%ADD23RoundRect,0.250000X-0.262500X-0.450000X0.262500X-0.450000X0.262500X0.450000X-0.262500X0.450000X0*%
%ADD24RoundRect,0.200000X0.275000X-0.200000X0.275000X0.200000X-0.275000X0.200000X-0.275000X-0.200000X0*%
%ADD25RoundRect,0.250000X-0.425000X-1.425000X0.425000X-1.425000X0.425000X1.425000X-0.425000X1.425000X0*%
%ADD26RoundRect,0.250000X0.425000X1.425000X-0.425000X1.425000X-0.425000X-1.425000X0.425000X-1.425000X0*%
%ADD27RoundRect,0.250000X1.000000X-1.950000X1.000000X1.950000X-1.000000X1.950000X-1.000000X-1.950000X0*%
%ADD28RoundRect,0.250000X0.325000X0.650000X-0.325000X0.650000X-0.325000X-0.650000X0.325000X-0.650000X0*%
%ADD29RoundRect,0.250000X-0.325000X-0.650000X0.325000X-0.650000X0.325000X0.650000X-0.325000X0.650000X0*%
%ADD30RoundRect,0.150000X-0.150000X0.587500X-0.150000X-0.587500X0.150000X-0.587500X0.150000X0.587500X0*%
%ADD31RoundRect,0.250000X0.550000X-1.500000X0.550000X1.500000X-0.550000X1.500000X-0.550000X-1.500000X0*%
%ADD32RoundRect,0.250000X1.425000X-0.425000X1.425000X0.425000X-1.425000X0.425000X-1.425000X-0.425000X0*%
%ADD33RoundRect,0.250000X-0.650000X0.325000X-0.650000X-0.325000X0.650000X-0.325000X0.650000X0.325000X0*%
G04 APERTURE END LIST*
D10*
%TO.C,U2*%
X146050000Y-85090000D03*
X146050000Y-86360000D03*
X146050000Y-87630000D03*
X146050000Y-88900000D03*
X146050000Y-90170000D03*
X146050000Y-91440000D03*
X146050000Y-92710000D03*
X151000000Y-92710000D03*
X151000000Y-91440000D03*
X151000000Y-90170000D03*
X151000000Y-88900000D03*
X151000000Y-87630000D03*
X151000000Y-86360000D03*
X151000000Y-85090000D03*
%TD*%
D11*
%TO.C,R25*%
X103250000Y-95260000D03*
X101600000Y-95260000D03*
%TD*%
D12*
%TO.C,C8*%
X79265000Y-78750000D03*
X71865000Y-78750000D03*
%TD*%
D13*
%TO.C,R23*%
X96732500Y-87005000D03*
X102657500Y-87005000D03*
%TD*%
D14*
%TO.C,D7*%
X175895000Y-109495000D03*
X175895000Y-115295000D03*
%TD*%
D15*
%TO.C,R27*%
X175260000Y-60692500D03*
X175260000Y-62517500D03*
%TD*%
D16*
%TO.C,R31*%
X57150000Y-69225000D03*
X58800000Y-69225000D03*
%TD*%
D17*
%TO.C,R45*%
X106045000Y-66495000D03*
X106045000Y-68145000D03*
%TD*%
D18*
%TO.C,R2A1*%
X87630000Y-85937500D03*
X87630000Y-91862500D03*
%TD*%
D17*
%TO.C,R34*%
X175260000Y-66495000D03*
X175260000Y-68145000D03*
%TD*%
D19*
%TO.C,T4*%
X58105000Y-66655000D03*
X60005000Y-66655000D03*
X59055000Y-64780000D03*
%TD*%
D16*
%TO.C,R42*%
X57150000Y-75575000D03*
X58800000Y-75575000D03*
%TD*%
D20*
%TO.C,T1*%
X139397500Y-98120000D03*
X139397500Y-100020000D03*
X141272500Y-99070000D03*
%TD*%
D15*
%TO.C,R19*%
X106680000Y-60325000D03*
X106680000Y-62150000D03*
%TD*%
D17*
%TO.C,R7*%
X147320000Y-79830000D03*
X147320000Y-81480000D03*
%TD*%
%TO.C,R35*%
X104140000Y-66495000D03*
X104140000Y-68145000D03*
%TD*%
D21*
%TO.C,C1*%
X81540000Y-96520000D03*
X75940000Y-96520000D03*
%TD*%
D17*
%TO.C,R5*%
X135890000Y-79830000D03*
X135890000Y-81480000D03*
%TD*%
D22*
%TO.C,C5*%
X151130000Y-79880000D03*
X151130000Y-81430000D03*
%TD*%
%TO.C,C10*%
X135395000Y-84960000D03*
X135395000Y-86510000D03*
%TD*%
D23*
%TO.C,R16*%
X77192500Y-39380000D03*
X79017500Y-39380000D03*
%TD*%
D15*
%TO.C,R21*%
X143510000Y-60415000D03*
X143510000Y-62240000D03*
%TD*%
D17*
%TO.C,R33*%
X145415000Y-79830000D03*
X145415000Y-81480000D03*
%TD*%
D13*
%TO.C,R0*%
X89112500Y-38745000D03*
X95037500Y-38745000D03*
%TD*%
D24*
%TO.C,R40*%
X168275000Y-114500000D03*
X168275000Y-112850000D03*
%TD*%
D25*
%TO.C,D3*%
X77110000Y-48905000D03*
X82910000Y-48905000D03*
%TD*%
D18*
%TO.C,R1*%
X87630000Y-65617500D03*
X87630000Y-71542500D03*
%TD*%
D11*
%TO.C,R10*%
X108775000Y-92720000D03*
X107125000Y-92720000D03*
%TD*%
D17*
%TO.C,R44*%
X92710000Y-103135000D03*
X92710000Y-104785000D03*
%TD*%
D26*
%TO.C,D4*%
X108670000Y-81280000D03*
X102870000Y-81280000D03*
%TD*%
D16*
%TO.C,R9*%
X161735000Y-97800000D03*
X163385000Y-97800000D03*
%TD*%
D15*
%TO.C,R20*%
X111760000Y-60325000D03*
X111760000Y-62150000D03*
%TD*%
D19*
%TO.C,D12*%
X130495000Y-81592500D03*
X132395000Y-81592500D03*
X131445000Y-79717500D03*
%TD*%
D27*
%TO.C,C2*%
X173355000Y-91330000D03*
X173355000Y-83930000D03*
%TD*%
D19*
%TO.C,T3*%
X101600000Y-92720000D03*
X103500000Y-92720000D03*
X102550000Y-90845000D03*
%TD*%
D25*
%TO.C,D5*%
X77110000Y-53985000D03*
X82910000Y-53985000D03*
%TD*%
D18*
%TO.C,R2B1*%
X87630000Y-75777500D03*
X87630000Y-81702500D03*
%TD*%
D24*
%TO.C,R28*%
X168275000Y-107070000D03*
X168275000Y-105420000D03*
%TD*%
D28*
%TO.C,C7*%
X164035000Y-84465000D03*
X161085000Y-84465000D03*
%TD*%
D20*
%TO.C,D9*%
X133682500Y-98435000D03*
X133654800Y-100299400D03*
X135534400Y-99385000D03*
%TD*%
D29*
%TO.C,C11*%
X56945000Y-78740000D03*
X59895000Y-78740000D03*
%TD*%
D17*
%TO.C,R6*%
X170180000Y-72845000D03*
X170180000Y-74495000D03*
%TD*%
D16*
%TO.C,R13*%
X161735000Y-80645000D03*
X163385000Y-80645000D03*
%TD*%
D22*
%TO.C,C14*%
X135255000Y-91310000D03*
X135255000Y-92860000D03*
%TD*%
D16*
%TO.C,R24*%
X96775000Y-92720000D03*
X98425000Y-92720000D03*
%TD*%
%TO.C,R32*%
X57150000Y-71120000D03*
X58800000Y-71120000D03*
%TD*%
D17*
%TO.C,R41*%
X167005000Y-86180000D03*
X167005000Y-87830000D03*
%TD*%
D30*
%TO.C,D16*%
X163510000Y-88305000D03*
X161610000Y-88305000D03*
X162560000Y-90180000D03*
%TD*%
D19*
%TO.C,T2*%
X96840000Y-79052500D03*
X98740000Y-79052500D03*
X97790000Y-77177500D03*
%TD*%
D26*
%TO.C,DZ3*%
X81640000Y-88900000D03*
X75840000Y-88900000D03*
%TD*%
%TO.C,D15*%
X69300000Y-65415000D03*
X63500000Y-65415000D03*
%TD*%
D16*
%TO.C,R43*%
X102870000Y-106690000D03*
X104520000Y-106690000D03*
%TD*%
D17*
%TO.C,R4*%
X82550000Y-102690000D03*
X82550000Y-104340000D03*
%TD*%
%TO.C,R18*%
X130810000Y-98435000D03*
X130810000Y-100085000D03*
%TD*%
D14*
%TO.C,D11*%
X87630000Y-56165000D03*
X87630000Y-61965000D03*
%TD*%
D17*
%TO.C,R8*%
X140335000Y-87640000D03*
X140335000Y-89290000D03*
%TD*%
D31*
%TO.C,C13*%
X181610000Y-104400000D03*
X181610000Y-98800000D03*
%TD*%
D22*
%TO.C,C9*%
X147320000Y-97800000D03*
X147320000Y-99350000D03*
%TD*%
D14*
%TO.C,D6*%
X173990000Y-99335000D03*
X173990000Y-105135000D03*
%TD*%
D18*
%TO.C,R26*%
X184150000Y-60537500D03*
X184150000Y-66462500D03*
%TD*%
D16*
%TO.C,R11*%
X161735000Y-95260000D03*
X163385000Y-95260000D03*
%TD*%
%TO.C,R14*%
X156655000Y-97800000D03*
X158305000Y-97800000D03*
%TD*%
D24*
%TO.C,R29*%
X168275000Y-101165000D03*
X168275000Y-99515000D03*
%TD*%
D32*
%TO.C,DZ2*%
X184150000Y-75290000D03*
X184150000Y-69490000D03*
%TD*%
D23*
%TO.C,R15*%
X82272500Y-39380000D03*
X84097500Y-39380000D03*
%TD*%
D16*
%TO.C,R3*%
X102870000Y-109865000D03*
X104520000Y-109865000D03*
%TD*%
D22*
%TO.C,C4*%
X138430000Y-79880000D03*
X138430000Y-81430000D03*
%TD*%
D11*
%TO.C,R30*%
X158495000Y-99705000D03*
X156845000Y-99705000D03*
%TD*%
D16*
%TO.C,R12*%
X161545000Y-93355000D03*
X163195000Y-93355000D03*
%TD*%
D33*
%TO.C,C3*%
X175260000Y-72625000D03*
X175260000Y-75575000D03*
%TD*%
D13*
%TO.C,R17*%
X77047500Y-64155000D03*
X82972500Y-64155000D03*
%TD*%
D30*
%TO.C,D14*%
X128204000Y-97497500D03*
X126304000Y-97497500D03*
X127254000Y-99372500D03*
%TD*%
D26*
%TO.C,DZ1*%
X71480000Y-88900000D03*
X65680000Y-88900000D03*
%TD*%
D16*
%TO.C,R22*%
X96520000Y-82560000D03*
X98170000Y-82560000D03*
%TD*%
D32*
%TO.C,D10*%
X100965000Y-61055000D03*
X100965000Y-55255000D03*
%TD*%
M02*
